<?xml version="1.0" standalone="no"?>
<!DOCTYPE svg PUBLIC "-//W3C//DTD SVG 20010904//EN"
 "http://www.w3.org/TR/2001/REC-SVG-20010904/DTD/svg10.dtd">
<svg version="1.0" xmlns="http://www.w3.org/2000/svg"
 width="131.000000pt" height="131.000000pt" viewBox="0 0 131.000000 131.000000"
 preserveAspectRatio="xMidYMid meet">

<g transform="translate(0.000000,131.000000) scale(0.100000,-0.100000)"
fill="#000000" stroke="none">
<path d="M485 1054 c-43 -21 -362 -342 -381 -382 -29 -62 -16 -82 174 -274 96
-97 190 -184 209 -193 63 -30 82 -18 275 173 97 96 184 190 193 209 30 63 18
82 -173 275 -160 162 -216 208 -254 208 -7 0 -26 -7 -43 -16z m230 -244 l180
-180 -182 -182 -182 -182 -183 182 -183 182 180 180 c99 99 182 180 185 180 3
0 86 -81 185 -180z"/>
<path d="M496 861 c-33 -37 10 -94 53 -71 43 22 28 90 -19 90 -9 0 -25 -9 -34
-19z"/>
<path d="M436 701 c-25 -28 -8 -75 47 -129 l43 -42 42 43 c54 55 71 101 47
127 -23 25 -47 25 -70 0 l-18 -20 -22 20 c-27 25 -47 25 -69 1z"/>
<path d="M297 662 c-10 -10 -17 -25 -17 -34 0 -17 31 -48 48 -48 15 0 52 36
52 50 0 15 -38 50 -53 50 -8 0 -21 -8 -30 -18z"/>
<path d="M700 660 c-11 -11 -20 -24 -20 -30 0 -15 38 -50 53 -50 18 0 47 32
47 52 0 17 -31 48 -48 48 -7 0 -21 -9 -32 -20z"/>
<path d="M500 460 c-11 -11 -20 -26 -20 -33 0 -18 32 -47 52 -47 17 0 48 31
48 48 0 15 -36 52 -50 52 -5 0 -19 -9 -30 -20z"/>
<path d="M715 1052 c-55 -34 -58 -45 -25 -77 28 -27 31 -27 48 -12 10 9 25 17
33 17 19 0 349 -331 349 -350 0 -19 -330 -350 -349 -350 -8 0 -22 7 -31 15
-15 13 -19 12 -46 -16 l-29 -31 28 -24 c34 -29 68 -39 105 -29 37 9 399 370
408 408 13 54 -5 79 -184 259 -210 212 -240 231 -307 190z"/>
</g>
</svg>
